<?xml version="1.0" standalone="no"?>
<!DOCTYPE svg PUBLIC "-//W3C//DTD SVG 1.1//EN" "http://www.w3.org/Graphics/SVG/1.1/DTD/svg11.dtd" >
<svg xmlns="http://www.w3.org/2000/svg">
<metadata></metadata>
<defs>
<font id="radiometryregular" horiz-adv-x="206" >
<font-face units-per-em="1000" ascent="750" descent="-250" />
<missing-glyph horiz-adv-x="500" />
<glyph unicode=" " />
<glyph unicode="!" horiz-adv-x="369" d="M113 75q0 -24 -16 -39q-16 -16 -40 -16t-41 16q-16 15 -16 39q0 25 16 41q19 17 41 17q23 0 40 -17q16 -16 16 -41zM40 218l58 392l76 -12l-57 -392z" />
<glyph unicode="#" horiz-adv-x="892" d="M350 548h-52v-399l-217 399h-81v-548h75v399l218 -399h81v548h-24zM701 0q-2 1 -3 2.5t-3 3.5q-5 4 -11.5 9.5t-14.5 10.5q-17 11 -40.5 19.5t-52.5 8.5q-28 0 -48.5 -7.5t-34.5 -17.5q-14 -9 -21.5 -17t-8.5 -10l-63 42q2 2 12.5 15t32.5 29t54.5 29t76.5 13t77.5 -13 t56.5 -28q24 -15 36 -27l14 -14l-58 -49q-1 0 -1 1zM456 6l7 -4zM407 374q0 39 14.5 72.5t40 59t59.5 40t72 14.5q39 0 72.5 -14.5t59 -40t40 -59t14.5 -72.5t-14.5 -72.5t-40 -59t-59 -40t-72.5 -14.5q-38 0 -72 14.5t-59.5 40t-40 59t-14.5 72.5v0zM483 374q0 -23 8.5 -43 t23.5 -35t35 -23.5t43 -8.5t43 8.5t35 23.5t23.5 35t8.5 43t-8.5 43t-23.5 35t-35 23.5t-43 8.5t-43 -8.5t-35 -23.5t-23.5 -35t-8.5 -43z" />
<glyph unicode="$" horiz-adv-x="715" d="M614 228q8 -14 11 -25q2 -6 2 -11.5v-10.5q0 -15 -1 -17q-1 -5 -4.5 -13t-8.5 -21q-10 -24 -43 -50q-16 -11 -36.5 -22t-46.5 -20t-61 -14.5t-78 -7.5v-134h-82v136q-11 0 -15 1h-15q-16 2 -32.5 4.5t-34.5 6.5q-19 4 -36.5 9.5t-34.5 13.5q-24 10 -42 22q-21 13 -36 36 q-19 28 -19 59h84q0 -8 2 -12q3 -4 13 -13q23 -17 61 -27q37 -11 79 -16q20 -2 34 -2.5t23 -2.5h10q42 0 74.5 3.5t55.5 9.5q49 14 72 28t29 26q5 12 6 13v4l2 1l-2 4q-4 4 -6 7q-5 5 -14 10q-11 5 -28 11t-42 11q-46 12 -140 10q-37 1 -67.5 2.5t-55.5 4.5q-49 6 -86 18 q-33 12 -57 29q-23 17 -35 36q-8 15 -11 26q-1 6 -1.5 11.5t-0.5 9.5q0 6 1 9v6q3 32 19 55q8 12 19 23q5 5 10.5 9t11.5 8q26 15 51 23q14 5 27 9t27 7q14 4 27.5 6.5t26.5 4.5t24.5 3t21.5 2v142h82v-141q85 -4 139 -23q52 -19 83 -43q36 -28 46 -53q5 -14 7.5 -21.5 t2.5 -10.5l-58 -6l-24 -5q0 4 -1 6q-2 2 -4 4.5t-5 6.5q-5 6 -15 15q-21 16 -68 32q-51 17 -144 17h-4q-4 0 -6 -1q-2 0 -3.5 -0.5t-3.5 -0.5h-9.5t-10.5 -1q-5 0 -11 -0.5t-13 -1.5q-15 -2 -29.5 -4.5t-30.5 -5.5q-15 -4 -29 -8t-27 -9q-15 -7 -28 -15q-11 -8 -14 -14 q-2 -2 -3.5 -5t-1.5 -8v-6v-5q0 -3 2 -5q3 -6 20 -17t68 -22q47 -10 141 -10q36 0 66.5 -1.5t56.5 -5.5q25 -3 46 -8t39 -11q67 -21 92 -64z" />
<glyph unicode="&#x26;" horiz-adv-x="669" d="M591 508q3 -17 3 -30q0 -24 -5 -42t-5 -19l-2 -2q-18 -50 -45 -81q-25 -32 -55 -56q2 -3 4.5 -6t4.5 -6q2 -4 4.5 -7.5t5.5 -8.5q13 -19 24 -50q6 -14 8.5 -31t2.5 -36q0 -26 -9 -56q-9 -29 -30 -57q-15 -23 -38 -39q-24 -16 -48 -26q-52 -20 -110 -20q-53 0 -109 17 q-54 16 -98 53q-51 42 -73 88q-21 45 -21 86q0 14 2 27.5t5 25.5q4 12 7.5 22t7.5 19q5 8 8.5 15t7.5 12q8 8 10 12q25 33 56 47q-3 4 -5.5 7t-5.5 5q-7 5 -11 12q-15 18 -27 42q-11 24 -9 53q0 41 19 76q19 42 61 65q9 5 18.5 9.5t19.5 6.5t19.5 3t18.5 1q30 0 59 -9 q14 -5 27 -11.5t24 -15.5q23 -17 39 -43q16 -23 16 -58h-85q0 14 -22 32q-11 8 -26 14q-18 7 -32 4q-25 0 -34 -8q-15 -8 -27 -27q-10 -24 -10 -39q0 -20 15 -38q14 -20 41 -35q18 -11 36 -18q9 -4 16.5 -7t13.5 -6q8 -1 13 -3l6 -2l-26 -81q-5 0 -15 5h-2q-17 3 -32 3 q-23 0 -43 -7q-22 -6 -40 -30v-2l-3 -3q-4 -5 -6.5 -9.5t-4.5 -7.5q-2 -6 -4.5 -12.5t-4.5 -13.5q-4 -13 -4 -32q0 -11 2.5 -23t8.5 -25q10 -26 50 -60q27 -23 70 -37q21 -6 41.5 -9.5t41.5 -3.5q43 0 79 14q35 14 48 34q13 17 18 34q2 8 3 15t1 15q0 19 -6 37t-15 33 q-14 22 -22 31q-11 -5 -21 -10t-21 -10q-21 -9 -39 -21q-4 -3 -10 -7q-13 -8 -16.5 -19t-1 -20.5t9.5 -16.5t15 -7t11.5 3.5t5.5 8.5t1 12h2l85 -7q-2 -2 -3 -9q0 -8 -6 -21q-3 -12 -12 -27q-8 -14 -27 -26q-26 -17 -56 -17h-1q-22 0 -44 10q-19 10 -34 27q-31 34 -31 82 q-1 29 17 60q18 30 53 48q18 11 35.5 20t34.5 16t31.5 14.5t26.5 16.5q14 8 26.5 18.5t23.5 22.5q11 13 21 31t19 41q2 1 2 7q3 13 3 24q0 14 -3 20l-6 6q-4 3 -11 6l22 81q24 -5 42 -18q17 -13 26 -31q5 -8 8.5 -16.5t5.5 -17.5z" />
<glyph unicode="*" horiz-adv-x="490" d="M348 601l-1 -73l-103 1l59 -84l-60 -42l-66 94l-54 -101l-65 36l54 99l-113 1l1 73l103 -1l-59 84l61 42l65 -94l55 101l64 -36l-54 -99l113 -1v0z" />
<glyph unicode="," horiz-adv-x="258" d="M26 8q-21 16 -25 42q-4 27 12.5 49t43.5 27q15 2 27.5 -1.5t23 -9t18 -12.5t10.5 -11q2 -3 5 -9t4 -9q3 -11 3.5 -27.5t-5.5 -35t-20.5 -38t-40.5 -35.5q-14 -10 -29 -21q-13 -9 -29 -19.5t-32 -19.5l-9 52q-3 23 8.5 42t20.5 25q7 4 14 11z" />
<glyph unicode="-" horiz-adv-x="451" d="M0 310l291 -3v-94l-291 3v94v0v0z" />
<glyph unicode="." horiz-adv-x="290" d="M157 54q0 -33 -23 -56t-56 -23q-32 0 -55 23t-23 56q0 32 23 55.5t55 23.5q33 0 56 -23.5t23 -55.5z" />
<glyph unicode="0" horiz-adv-x="566" d="M434 467q34 -39 53 -87q20 -51 20 -107q0 -55 -20 -106q-19 -48 -53 -87q-35 -38 -80 -60q-46 -23 -100 -23q-53 0 -101 23q-47 22 -81 60q-34 39 -53 87t-19 106q0 59 19 107t53 87q34 37 81 60q48 23 101 23q54 0 100 -23q45 -22 80 -60zM254 70q49 0 90 29 q-21 14 -46 34q-26 19 -54 48q-39 39 -78 92q-38 53 -56 119q-8 -13 -14 -27t-11 -29q-9 -30 -9 -63q0 -43 15 -80q15 -39 39 -66q51 -57 124 -57zM396 153q34 52 34 120q0 47 -14 82q-15 38 -38 65q-54 57 -124 57q-46 0 -80 -21q6 -64 38 -116q31 -53 74 -96 q16 -15 31 -29t29 -25q15 -12 27.5 -21t22.5 -16z" />
<glyph unicode="1" horiz-adv-x="282" d="M89 0v440q-19 -9 -40 -15q-11 -3 -23 -4.5t-26 0.5v76q37 3 50 11q18 10 25 17q5 5 7 9t4 9t2.5 7.5t1.5 4.5l6 -2l71 -5v-548h-78z" />
<glyph unicode="2" horiz-adv-x="596" d="M430 36q-31 16 -81 16q-14 0 -29 -1.5t-30 -3.5q-30 -4 -58 -12q-14 -3 -25.5 -6.5t-22.5 -7.5q-23 -8 -33 -12q-24 -9 -46 -9q-21 0 -39 6q-8 3 -15 6.5t-14 7.5q-6 5 -11 8t-8 6q-3 2 -5 4l-3 3l-50 54l74 6q38 3 70 8t61 12q57 14 97 31q20 8 38 17.5t32 19.5 t25.5 19.5t21.5 18.5q39 42 46 75q7 34 9 50v3q-1 0 -1 2v2v1v3v4q0 3 -0.5 5.5t-1.5 5.5q-2 4 -3.5 8.5t-3.5 9.5q-3 10 -12 21q-4 5 -9 10.5t-11 10.5q-11 11 -30 19q-20 9 -45 15q-14 2 -29.5 3.5t-35.5 1.5q-69 0 -105 -17q-35 -18 -51 -37q-15 -18 -20 -38 q-2 -9 -3 -14.5t-1 -7.5v-3l-2 -3h2q-2 -2 -2 -5q0 -6 3 -15q1 -7 10 -16q6 -7 29 -17q19 -9 66 -9v-71q-54 0 -89 13q-34 12 -57 35q-20 22 -26 44q-5 25 -5 36v15q1 5 2.5 13.5t3.5 21.5q5 26 27 56q29 38 79 64q51 28 139 26q89 2 140 -26q52 -26 79 -64q22 -30 28 -57 q2 -14 3.5 -22t1.5 -12v-15q0 -6 -0.5 -13.5t-1.5 -17.5q-2 -9 -4 -19.5t-6 -21.5q-4 -12 -9 -24.5t-13 -25.5q-14 -26 -39 -52q-28 -28 -71 -56q23 0 51 -5q13 -2 24.5 -6.5t22.5 -9.5q26 -12 48 -32q22 -21 34 -52l-64 -27q-9 18 -19 28q-12 10 -27 18z" />
<glyph unicode="3" horiz-adv-x="685" d="M549 231q33 -35 39 -63q6 -29 6 -34q0 -3 -8 -30q-7 -25 -42 -49q-30 -23 -89 -40q-57 -15 -158 -15q-102 0 -159 15q-59 17 -89 40q-33 23 -42 49q-7 24 -7 30h76h-17l17 4l2 -2q0 -9 15 -19q18 -13 63 -26q47 -14 141 -14q30 0 55.5 2t45.5 5q43 8 65 16q4 2 7 2l6 3 q4 2 15 11q9 7 13 22q3 21 -11 41q-17 18 -61 37q-44 18 -135 18h-156v78h156q86 0 128 16q44 17 63 34q9 7 13 21q4 13 1 27q-3 13 -14 24q-14 10 -15 11q-24 10 -66 18q-21 4 -48.5 6t-61.5 2q-31 0 -56.5 -2t-45.5 -5q-43 -8 -66 -16q-12 -5 -21 -8.5t-14 -8.5t-8.5 -8 t-5.5 -6l-4 -7v-1l-17 3h-59q0 9 7 31q10 25 42 48q33 25 89 40q29 8 68.5 12t90.5 4t90 -4t68 -12q56 -15 89 -40q34 -24 42 -48q8 -26 8 -31q0 -4 -6 -32q-6 -29 -39 -63q-5 -6 -11 -12t-13 -11q-8 -6 -16 -10.5t-17 -9.5q9 -5 17 -9.5t16 -10.5q7 -5 13 -11t11 -12z" />
<glyph unicode="4" horiz-adv-x="690" d="M480 0v105l-480 -22v81l1 7q4 9 8 16.5t9 14.5q10 16 23 28l14 14l15 15q8 7 17 14l18 14q18 15 37.5 29.5t41.5 29.5q43 30 87 57q23 14 44 27t41 26t38 23.5t35 20.5q19 11 36.5 20.5t34.5 19.5l56 29v-384l49 4l4 -78l-53 -2v-109h-76zM424 407q-25 -15 -51.5 -31.5 t-55.5 -34.5t-56.5 -36.5t-53.5 -36.5q-35 -24 -63 -48q-14 -12 -26 -23t-22 -21q-9 -9 -10 -12l394 18v258q-7 -4 -13.5 -7.5t-13.5 -8.5q-15 -10 -29 -17z" />
<glyph unicode="5" horiz-adv-x="655" d="M487 361q36 -25 58 -62q20 -37 20 -77q0 -35 -9 -74q-11 -41 -44 -74q-33 -34 -89 -54q-55 -20 -141 -20q-85 0 -142 23q-56 24 -86 53q-31 28 -42 55q-5 13 -8 20t-4 9l53 12l22 5v-1q2 -4 2 -5q0 -3 3 -6q4 -11 25 -34q21 -20 61 -36q41 -17 116 -19q75 1 117 17 q40 15 59 34t25 43t6 52q0 10 -2.5 19t-7.5 19q-10 17 -34 38q-22 15 -65 28q-42 11 -95 11q-27 0 -51 -2t-46 -6q-21 -5 -39 -9.5t-32 -9.5q-35 -13 -57 -26l-19 -12l-41 12v283l49 -15q51 -19 108 -25q55 -6 108 -6q23 0 44.5 1t42.5 3t39.5 4t35.5 4q17 3 30.5 5.5 t24.5 4.5q11 3 18.5 4.5t11.5 2.5h2v1q0 1 2 1h2l18 -74q-43 -12 -80 -18q-19 -3 -40 -6t-46 -5q-25 -3 -51 -4t-54 -1q-23 0 -46.5 1t-46.5 3q-24 2 -48 6t-49 10v-87q17 7 38.5 13t47.5 12q52 12 124 12q32 0 60.5 -3t54.5 -11q49 -15 87 -39z" />
<glyph unicode="6" horiz-adv-x="648" d="M478 346q40 -26 63 -64q24 -38 24 -84q0 -45 -24 -84q-24 -38 -63 -63q-78 -56 -190 -56t-190 56q-33 22 -55 53t-28 70h-1q0 1 -2 9.5t-5 23.5q-4 16 -5.5 36t-1.5 43q0 20 2.5 42.5t7.5 45.5q10 46 44 87q35 43 91 68t142 25h30h24.5t29.5 -2q35 -3 67 -13 q33 -9 69 -27q36 -20 61 -53l-59 -45q-14 17 -39 31q-24 12 -51 21q-14 5 -28 7t-28 3t-25 1.5t-21 0.5h-24h-1h-2h-2q-73 -1 -114 -19t-60 -45q-17 -20 -24 -39q-9 -21 -12 -45l20 16q80 56 190 56t190 -56zM434 112q54 36 54 86q0 49 -54 87q-29 19 -64 29q-19 6 -39 8.5 t-43 2.5q-22 0 -42 -2.5t-39 -8.5q-37 -10 -65 -29q-54 -39 -54 -87q0 -47 54 -86q27 -19 65 -30q39 -11 81 -11q43 0 82 11q37 10 64 30z" />
<glyph unicode="7" horiz-adv-x="610" d="M332 416q-20 -3 -42 -5t-47 -2q-69 0 -118 12q-25 6 -46 12t-38 13t-30 13t-22 12q-8 7 -13 10t-6 4l49 61l-13 -16l13 17v-1h2l4 -4l4 -4q4 -2 7.5 -4t8.5 -4q5 -3 10.5 -5.5t12.5 -5.5q15 -5 32.5 -10t39.5 -10q40 -10 103 -10q58 0 103 9q23 5 41.5 9.5t35.5 9.5 q34 11 49 21q18 10 19 11l51 -56l-338 -493h-93l295 431q-36 -9 -74 -15z" />
<glyph unicode="8" horiz-adv-x="694" d="M592 135q2 -5 -2 -16q-3 -14 -13 -31q-6 -9 -13 -16q-4 -5 -9 -8.5t-10 -8.5q-10 -7 -22 -13.5t-27 -12.5q-31 -12 -74 -21q-13 -2 -26.5 -3t-29.5 -3t-33 -2h-36h-37t-33 2q-30 3 -57 6q-44 9 -72 21q-29 12 -50 26q-5 5 -9.5 8.5t-8.5 8.5l-7.5 7.5t-7.5 8.5 q-5 9 -8 16.5t-4 14.5q-3 12 -3 16q0 3 6 33t36 63q11 13 25.5 24t32.5 19q-34 20 -58 44q-30 35 -36 64q-6 30 -6 33q0 4 3 16q1 7 4 14t8 15q8 11 16 19.5t17 15.5q21 14 50 26q28 12 72 21q27 3 57 6q31 3 70 3q37 0 69 -3q16 -2 29.5 -3t26.5 -3q43 -9 74 -21 q15 -6 27 -12.5t22 -13.5q20 -14 32 -35q10 -14 13 -29q4 -11 2 -16q0 -2 -1.5 -10t-3.5 -23q-4 -28 -37 -64q-12 -14 -25 -23q-15 -11 -33 -21q39 -21 58 -43q33 -34 37 -63q2 -15 3.5 -23t1.5 -10zM100 180q-5 -9 -8 -21q-4 -10 -2 -22q3 -13 13 -21q8 -8 14 -12q2 0 3 -1 q0 -1 2 -1h2q0 -2 3 -2l7 -3q5 0 10 -4q10 -2 12 -2q3 -1 5.5 -1.5t6.5 -1.5h2q4 -2 6 -2q3 0 6 -1h1q2 0 3.5 -0.5t3.5 -0.5q2 -1 7 -1h5q4 -2 10 -2h5q2 -1 14 -1h7q2 -2 10 -2h8h14h8q8 -2 19 -2q6 0 10.5 0.5t8.5 1.5h6h14h8q10 0 12 2h7q10 0 14 1h5q6 0 10 2h5 q4 0 6 1q2 0 3 0.5t3 0.5h2q2 1 6 1q1 0 5 2h2q8 2 14 3t10 2q5 4 10 4h2l7 3l3 2q2 0 2 1q1 1 3 1q7 3 16 12q10 10 13 21q1 9 -2 22q-3 12 -8 21q-18 17 -63 37q-42 19 -134 19h-2q-90 0 -133 -18q-41 -17 -62 -38zM92 412q-4 -11 1 -27q3 -13 12 -20q20 -20 63 -35 q42 -16 129 -16q86 0 128 16q42 14 64 35q6 6 11 20q5 13 2 27t-14 24q-12 9 -15 10q-14 8 -33 12.5t-43 8.5h-3h-9q-2 2 -5 2h-5q-6 0 -9 2h-3h-10h-2q-8 0 -12 1h-1h-12h-2h-12h-13h-2h-2h-13h-12h-4h-10h-3q-2 -1 -10 -1h-4h-8h-5q-1 -2 -7 -2h-5q-5 0 -7 -2h-7h-3 q-53 -9 -76 -21q-5 -2 -16 -10q-11 -9 -13 -24z" />
<glyph unicode="9" horiz-adv-x="630" d="M85 203q-40 28 -62 65q-24 37 -24 84q0 45 24 84q25 39 62 63q78 56 189 56t189 -56q35 -23 56 -54q23 -31 29 -69q0 -6 7 -35q3 -16 5 -35.5t3 -43.5q-1 -20 -3.5 -41.5t-7.5 -44.5q-10 -45 -45 -89q-33 -41 -90 -66q-56 -25 -142 -25q-2 0 -4.5 -0.5t-6.5 -0.5 q-4 -1 -9 -1h-10q-22 0 -55 3q-32 4 -66 12q-36 9 -69 28q-37 20 -62 54l60 45q15 -20 39 -33q25 -12 52 -21q29 -6 55 -9q27 -3 46 -3q4 0 7.5 0.5t6.5 0.5q4 1 9 1h2h2h1q76 0 115 19q39 18 62 44q13 17 22 40q7 21 12 45q-9 -9 -21 -17q-20 -13 -41.5 -23t-45.5 -17 q-48 -15 -102 -15t-102 15q-24 7 -45.5 17t-41.5 23zM129 437q-54 -39 -54 -85q0 -48 54 -87q27 -18 64 -30q36 -12 81 -10q45 -2 81 10q37 12 64 30q55 38 55 87q0 47 -55 85q-27 18 -64 30q-38 12 -81 12q-44 0 -81 -12t-64 -30z" />
<glyph unicode=":" horiz-adv-x="293" d="M163 317q0 -34 -23.5 -57.5t-58.5 -23.5q-34 0 -57.5 23.5t-23.5 57.5q0 35 23.5 58.5t57.5 23.5q35 0 58.5 -23.5t23.5 -58.5zM163 40q0 -34 -23.5 -58t-58.5 -24q-34 0 -57.5 24t-23.5 58t23.5 58t57.5 24q35 0 58.5 -24t23.5 -58z" />
<glyph unicode=";" horiz-adv-x="279" d="M164 319q0 -34 -24 -58t-58 -24t-58 24t-24 58t24 57.5t58 23.5t58 -23.5t24 -57.5zM47 8q-4 -3 -7 -6t-7 -5q-9 -6 -20.5 -25t-8.5 -42l8 -52q16 9 31.5 19.5t29.5 19.5q15 11 30 21q26 16 40.5 35.5t20.5 38t5 35t-4 27.5q-1 3 -3.5 9t-4.5 9l-8 11l8 -11 q-10 19 -34 28t-46 6q-27 -5 -43.5 -27t-11.5 -49q4 -26 25 -42z" />
<glyph unicode="?" horiz-adv-x="738" d="M124 130q-14 22 -14 47q0 27 17 49q8 10 16.5 17t17.5 12l19 9.5t19 7.5q10 4 19.5 6t18.5 4q18 5 34.5 7t31.5 4q15 1 24 1h12q90 8 135 25q47 18 65 36q19 19 22 33q2 7 3 12t2 11q0 6 -0.5 9t-2.5 8t-4 9.5t-4 9.5q-6 11 -16 22q-17 21 -67 44q-47 22 -148 22 q-83 0 -132 -17q-46 -16 -68 -35q-24 -19 -31 -38q-3 -9 -5 -15.5t-3 -11.5l-2 -3v-2h-24h-59v4t1 8q0 8 5 25q5 18 13 34q5 10 11.5 19.5t15.5 19.5q33 39 100 68q66 28 178 27q112 1 178 -27q67 -29 100 -68q16 -17 25 -34t13 -32q8 -32 8 -41v-10q0 -16 -9 -49 q-11 -33 -44 -63t-94 -53q-60 -23 -157 -30h-1q-8 -1 -14 -1h-11q-4 0 -10 -0.5t-11 -1.5q-10 -2 -20 -3.5t-21 -3.5t-20 -4.5t-17 -5.5q-11 -3 -18 -8l-8 -6q0 1 4 -8q5 -9 20 -24l-59 -59q-5 6 -9.5 11.5t-9.5 10.5q-8 8 -15 22zM346 30q0 -28 -19 -49q-20 -19 -47 -19 q-29 0 -48 19q-20 19 -20 49q0 27 20 46q20 20 48 20q25 0 47 -20q19 -21 19 -46z" />
<glyph unicode="A" horiz-adv-x="706" d="M0 0l338 580l341 -580h-88l-56 95h-390l-56 -95h-89v0zM189 171h300l-151 256l-149 -256v0z" />
<glyph unicode="B" horiz-adv-x="687" d="M572 246q14 -18 21 -40q8 -24 8 -50v-10q-2 -28 -12 -49q-5 -11 -11.5 -20t-14.5 -17q-16 -16 -32 -26q-8 -5 -16.5 -9t-17.5 -8q-35 -13 -59 -14q-26 -3 -27 -3h-411v548h384h5t12 -1q14 0 40 -8q25 -6 50 -18q28 -12 50 -36q10 -14 17 -27q12 -25 14 -48t2 -26v-1 q-2 -14 -4 -26.5t-7 -23.5q-11 -24 -23 -37l-6 -6l-6 -6q25 -15 44 -38zM77 313h307h5.5t9.5 1q6 0 12.5 1t14.5 3q16 3 32 11q15 7 24 18q13 15 15 40v5q0 13 -3 22q-3 8 -9 16q-14 15 -34 24q-11 5 -21.5 8t-21.5 5q-19 4 -26 4h-305v-158zM524 156q0 16 -3 24 q-2 5 -4.5 9t-5.5 9q-9 12 -32 24q-11 4 -21 6.5t-21 3.5t-17.5 1.5t-8.5 0.5h-334v-157h334q2 0 8 2q10 0 27 5q9 2 17.5 4.5t16.5 6.5q18 9 27 18q15 15 17 38v5z" />
<glyph unicode="C" horiz-adv-x="549" d="M497 69q-40 -38 -93 -61q-54 -23 -114 -23q-58 0 -112 23q-27 11 -50 26.5t-43 35.5t-35.5 43t-26.5 49q-23 54 -23 114q0 59 23 113q22 52 62 92q39 39 93 63q51 22 112 22q62 0 115 -22q53 -24 92 -64l-53 -53q-32 30 -69 46q-40 17 -85 17q-43 0 -83 -17 q-36 -16 -68 -46q-27 -27 -46 -68q-17 -40 -17 -83q0 -44 17 -84q18 -38 46 -68q28 -27 68 -46q40 -17 83 -17q44 0 84 17q41 19 68 46z" />
<glyph unicode="D" horiz-adv-x="597" d="M537 241q-9 -77 -40 -124q-19 -29 -43 -50t-47 -34q-51 -25 -88 -29q-19 -2 -29 -3t-12 -1h-278v548h259q2 0 8.5 -0.5t18.5 -1.5q22 -1 60 -14q33 -9 76 -34q40 -23 73 -69q37 -55 42 -137v-5q1 -7 1 -20t-1 -23v-1v-2zM461 278q-1 33 -8 59q-8 28 -19 44q-25 37 -62 57 q-17 11 -34.5 17t-34.5 9q-17 2 -27.5 3.5t-15.5 1.5h-184v-392h205q1 0 2 0.5t3 0.5q2 1 6 1q5 1 10 1.5t10 1.5q5 2 11 3t12 3q13 4 25.5 10.5t26.5 14.5q26 14 45 45q14 20 21 47q8 30 8 68v5z" />
<glyph unicode="E" horiz-adv-x="548" d="M455 0h-338h-117v548h455v-78h-378v-158h378v-79h-378v-156h378v-77v0z" />
<glyph unicode="F" horiz-adv-x="502" d="M77 0h-77v548h399v-77h-322v-158h322v-79h-322v-157v-77v0z" />
<glyph unicode="G" horiz-adv-x="691" d="M580 251v-310h-76v139q-40 -43 -95 -69q-54 -25 -120 -25q-58 0 -112 23q-26 11 -49 26.5t-43 35.5t-35.5 43t-26.5 49q-23 54 -23 114q0 58 23 112q11 26 26.5 49t35.5 43q39 39 92 62q54 23 112 23q60 0 114 -23q52 -23 93 -63l-55 -53q-28 29 -67 46q-40 17 -85 17 q-42 0 -82 -17q-38 -16 -68 -46q-14 -15 -26 -31.5t-20 -36.5q-17 -40 -17 -82q0 -44 17 -84q16 -38 46 -68q27 -29 68 -46q40 -17 82 -17q39 0 78 14q38 16 65 40q29 26 47 60q19 36 23 75h78z" />
<glyph unicode="H" horiz-adv-x="504" d="M424 548v-548h-76v219h-271v-219h-77v548h77v-253h271v253h76z" />
<glyph unicode="I" horiz-adv-x="183" d="M0 548h76v-548h-76v548v0z" />
<glyph unicode="J" horiz-adv-x="412" d="M64 7q-22 7 -49 29q-25 23 -38 57l72 29q7 -17 19 -29q5 -5 11.5 -9t13.5 -6q15 -7 27 -8h17h1h2q41 0 65 20q25 22 37 54q14 36 17 69q3 34 3 48v7v2v278h77v-277v-10q0 -7 -0.5 -16.5t-1.5 -23.5t-3.5 -29.5t-6.5 -32.5q-9 -33 -25 -67t-48 -61q-11 -10 -24 -17 t-27 -12q-27 -10 -63 -10h-3h-12t-17 2q-21 3 -44 13z" />
<glyph unicode="K" horiz-adv-x="615" d="M403 0l-197 270l-130 -107v-163h-76v548h76v-285l353 285h120l-283 -231l232 -317h-95z" />
<glyph unicode="L" horiz-adv-x="402" d="M0 0v548h77v-472h17h203v-76h-203h-94v0z" />
<glyph unicode="M" horiz-adv-x="860" d="M743 548v-548h-76v403l-293 -368l-294 368v-403h-80v548h70l304 -386l303 386h66v0z" />
<glyph unicode="N" horiz-adv-x="702" d="M599 548v-548h-92l-431 446v-446h-76v548h85l437 -453v453h77z" />
<glyph unicode="O" horiz-adv-x="669" d="M0 274q0 60 24 113q22 53 63 94q39 39 92 62q54 23 113 23t113 -23q53 -22 93 -62q41 -41 63 -94q22 -51 22 -113q0 -63 -22 -114q-23 -53 -63 -93t-93 -62q-54 -23 -113 -23t-113 23q-53 22 -92 62q-41 40 -63 93q-24 52 -24 114zM78 274q0 -43 17 -83q16 -39 46 -69 t68 -46q37 -17 83 -17q47 0 84 17q41 17 68 46q29 28 46 69q17 37 17 83t-17 83q-16 38 -46 68t-68 46q-40 17 -84 17q-43 0 -83 -17q-20 -8 -36.5 -20t-31.5 -26q-14 -15 -26 -31.5t-20 -36.5q-17 -40 -17 -83z" />
<glyph unicode="P" horiz-adv-x="620" d="M0 0v548h336h6t14 -1q17 -1 48 -11q27 -7 61 -24q33 -16 59 -46q39 -45 39 -113q0 -67 -39 -112q-20 -21 -39 -33q-20 -13 -43 -22q-42 -17 -73 -20q-16 -1 -24.5 -1.5t-10.5 -0.5h-258v-164h-76zM335 243h3h10h9t9 2l10 2t10 3q23 3 45 14q22 13 35 27q8 10 14 26 q6 13 6 36q0 37 -18 60q-9 12 -20 20q-5 5 -11.5 8.5t-13.5 7.5q-30 14 -55 17q-27 3 -33 3h-259v-226h259z" />
<glyph unicode="Q" horiz-adv-x="661" d="M506 78q8 -7 14.5 -12.5t13.5 -10.5q6 -5 11 -9t10 -7l3 -3l2 -2q1 0 3 -2t4 -2l-45 -63q-9 9 -22 17q-5 5 -11 10t-13 10q-8 5 -15.5 11t-16.5 13q-70 -44 -152 -44q-54 0 -108 21q-52 19 -97 62q-45 45 -66 99t-21 110q0 54 21 108q21 52 62 96q23 22 47 38.5t52 27.5 q53 22 110 22q54 0 107 -21q52 -20 96 -64q45 -42 66 -97q23 -55 23 -110q0 -53 -20 -105t-58 -93zM292 61q51 0 90 20q-17 15 -33.5 31.5t-32.5 33.5q-17 18 -31.5 35.5t-28.5 35.5q-12 17 -21 34t-17 34q-14 32 -16 71q0 26 13 56q26 50 67 69q7 7 18 9q-3 0 -4 1 q-1 0 -1.5 0.5t-2.5 0.5q-88 0 -153 -65q-32 -32 -47 -71q-16 -38 -16 -80q0 -88 65 -153q32 -32 71 -47t80 -15zM446 127q31 33 46 70q15 39 15 79q0 62 -34 115l-1 1q0 1 -2 1l-27 14q-10 3 -19.5 6.5t-20.5 5.5q-22 6 -42 5q-27 0 -42 -9q-9 -5 -19 -15q-9 -11 -17 -24 q-3 -5 -3 -20q-3 -30 30 -80q17 -25 37 -49q11 -13 22 -25t23 -24l13.5 -13.5t13.5 -12.5t13.5 -12t13.5 -13z" />
<glyph unicode="R" horiz-adv-x="654" d="M509 0l-154 164h-279v-164h-76v548h372h6t14 -1q22 -2 48 -10q27 -8 61 -24q31 -15 59 -46q39 -45 39 -114q0 -68 -39 -111q-17 -20 -39 -34q-10 -6 -20.5 -11.5t-21.5 -9.5q-8 -4 -15 -6.5t-14 -4.5l168 -176h-56h-53zM386 243q4 2 7.5 2t8.5 1t10.5 1.5t11.5 2.5 q11 2 21.5 5.5t21.5 9.5q21 11 35 26q8 11 15 26q6 13 6 36q0 37 -17 60q-20 23 -46 36q-15 8 -28.5 12t-27.5 6q-26 3 -33 3h-295v-227h295h2h1h12z" />
<glyph unicode="S" horiz-adv-x="617" d="M285 -16h-7.5t-17.5 1q-12 0 -27 2t-33 5q-17 4 -35 8.5t-38 11.5q-37 11 -73 38q-23 16 -39 43q-15 27 -15 60h78q0 -19 17 -39q17 -16 58 -30q33 -13 71 -18q19 -2 32 -3.5t21 -2.5h10q83 0 124 16q44 17 64 35q20 16 25 30q3 7 4.5 11t2.5 6v4v1v2v6t-1 8 q-2 4 -6.5 9.5t-14.5 12.5q-17 13 -63 24q-23 6 -55.5 8.5t-74.5 2.5q-89 0 -147 14q-55 13 -89 37q-33 22 -46 50q-12 28 -10 47v17q2 32 17 58q14 24 37 42q22 16 48 27q13 5 25.5 9.5t25.5 9.5q50 14 90 17t42 3q100 0 158 -23q61 -23 91 -55q32 -29 41 -57q9 -29 9 -33 l-63 -5l-14 -3v1l-3 11q-8 18 -22 32q-22 19 -65 36q-44 18 -132 18h-3h-16q-5 -1 -10.5 -1.5t-12.5 -0.5l-14 -2t-15 -3q-32 -5 -62 -16q-31 -10 -50 -26q-24 -18 -24 -44v-5l-2 -4v-3q0 -3 3 -12q3 -8 21 -22q19 -13 63 -25q43 -12 129 -12q94 0 147 -13q27 -6 49.5 -15.5 t39.5 -20.5q32 -24 45 -52q12 -29 12 -47q0 -8 -1 -11v-7q-2 -5 -4 -13t-7 -21q-5 -12 -14.5 -25.5t-24.5 -27.5q-32 -30 -91 -53q-58 -23 -156 -23h-2z" />
<glyph unicode="T" horiz-adv-x="572" d="M516 548v-84h-204h-17v-464h-76v464h-17h-202v84h258h54h204z" />
<glyph unicode="U" horiz-adv-x="611" d="M517 548v-278v-17t-1 -24t-3.5 -29t-6.5 -32q-5 -17 -11 -34t-14 -34q-17 -35 -48 -61q-6 -5 -12 -8.5t-12 -7.5q-20 -14 -45.5 -21t-48.5 -9q-26 -3 -54 -2q-68 0 -98.5 8.5t-35.5 10.5q-21 7 -42 23q-20 14 -35 34q-7 10 -13 20t-11 20q-10 21 -15.5 41t-7.5 40 q-3 37 -3 58v302h76v-302q0 -7 0.5 -15t1.5 -19q2 -20 9 -44q5 -25 16 -42q10 -19 28 -31q3 -2 6.5 -4.5t7.5 -4.5q8 -5 24 -9q13 -3 35 -5.5t54 -2.5q29 -1 56 3q23 3 46.5 12t37.5 28q2 2 4 4.5t4 5.5q4 7 7.5 15t7.5 16q7 17 11 34.5t6 34.5q3 34 3 48v278h76z" />
<glyph unicode="V" horiz-adv-x="747" d="M678 548l-336 -580l-342 580h89l252 -429l249 429h88z" />
<glyph unicode="W" horiz-adv-x="1019" d="M612 -35l-134 227l-132 -227l-346 583h90l256 -431l88 151l-168 280h90l122 -203l119 203h90l-165 -280l90 -151l251 431h90l-341 -583v0z" />
<glyph unicode="X" horiz-adv-x="645" d="M351 272l248 -272h-104l-195 216l-197 -216h-103l248 272l-253 276h103l202 -219l200 219h104z" />
<glyph unicode="Y" horiz-adv-x="558" d="M253 272l-14 -14v-258h-76v256l-268 292h105l200 -219l200 219h106l-253 -276v0z" />
<glyph unicode="Z" horiz-adv-x="616" d="M3 0l369 470h-372v78h529l-366 -470h360v-78h-520v0z" />
<glyph unicode="a" horiz-adv-x="714" d="M483 175l-149 -201l-141 201l-102 -175h-92l337 580l342 -580h-92l-103 175v0zM439 250l-103 173l-100 -173l100 -141l103 141v0z" />
<glyph unicode="b" horiz-adv-x="629" d="M513 246q14 -18 21 -40q8 -22 8 -49v-11q-1 -26 -12 -49q-11 -22 -26 -37q-8 -8 -16 -14t-16 -11q-17 -11 -34 -18q-17 -6 -31.5 -9t-27.5 -5q-26 -3 -27 -3h-352v548h325h5t12 -1q8 0 18 -2t22 -5q12 -4 24.5 -8.5t25.5 -10.5q28 -12 50 -36q10 -13 17 -26 q12 -26 14 -49t2 -26v-1q-2 -14 -4 -26t-7 -23t-10.5 -20.5t-12.5 -17.5l-6 -6l-6 -6q13 -7 23.5 -16.5t20.5 -21.5zM76 313h249h5.5t9.5 1q6 0 12.5 1t14.5 3q16 3 32 11q15 7 24 18q14 17 15 40v5q0 14 -3 22t-9 16q-14 15 -34 24q-11 5 -21.5 8.5t-21.5 5.5q-21 3 -26 3 h-247v-158zM465 157q0 15 -3 24q-2 4 -4.5 8t-5.5 9q-9 12 -32 24q-20 8 -42 10q-11 1 -17.5 1.5t-8.5 0.5h-276v-156h276q5 0 8 1q10 0 27 5q9 2 17.5 4.5t16.5 7.5q18 7 27 18q15 14 17 37v6z" />
<glyph unicode="c" horiz-adv-x="554" d="M497 70q-40 -38 -93 -61q-54 -23 -114 -23q-58 0 -112 23q-27 11 -50 26.5t-43 35.5t-35.5 43t-26.5 49q-23 54 -23 114q0 59 23 113q22 52 62 92q39 39 93 63q51 22 112 22q62 0 115 -22q53 -24 92 -64l-53 -53q-32 30 -69 46q-40 17 -85 17q-43 0 -83 -17 q-36 -16 -68 -46q-27 -27 -46 -68q-17 -40 -17 -83q0 -44 17 -84q18 -38 46 -68q28 -27 68 -46q40 -17 83 -17q44 0 84 17q41 19 68 46z" />
<glyph unicode="d" horiz-adv-x="591" d="M508 243q0 -1 -0.5 -1t-0.5 -1q-7 -74 -40 -124q-10 -14 -20.5 -26.5t-22.5 -23.5q-11 -11 -23 -19t-24 -15q-52 -25 -87 -28q-20 -2 -30 -3.5t-12 -1.5h-248v548h229q2 0 9 -0.5t18 -1.5q26 -2 60 -13q18 -5 37 -14t39 -21q42 -25 73 -68q37 -56 43 -138v-5v-43v-1z M431 278q-1 32 -8 60q-4 12 -8.5 23t-10.5 20q-25 38 -61 57q-34 20 -70 26q-17 2 -27.5 3.5t-15.5 1.5h-154v-391h175h5q2 1 7 1q4 1 9 2l10 2q6 1 11.5 2t11.5 3q13 5 26 11t26 14q27 16 45 45q12 18 22 47q7 27 7 68v5z" />
<glyph unicode="e" horiz-adv-x="517" d="M423 0h-306h-117v548h423v-78h-347v-158h347v-79h-347v-156h347v-77v0z" />
<glyph unicode="f" horiz-adv-x="406" d="M77 0h-77v549h302v-78h-225v-158h225v-79h-225v-156v-78v0z" />
<glyph unicode="g" horiz-adv-x="689" d="M580 251v-310h-76v139q-40 -43 -95 -69q-54 -25 -120 -25q-58 0 -112 23q-26 11 -49 26.5t-43 35.5t-35.5 43t-26.5 49q-23 54 -23 114q0 58 23 112q11 26 26.5 49t35.5 43q39 39 92 62q54 23 112 23q60 0 114 -23q52 -23 93 -63l-55 -53q-28 29 -67 46q-40 17 -85 17 q-42 0 -82 -17q-38 -16 -68 -46q-14 -15 -26 -31.5t-20 -36.5q-17 -40 -17 -82q0 -44 17 -84q16 -38 46 -68q27 -29 68 -46q40 -17 82 -17q39 0 78 14q38 16 65 40q29 26 47 60q19 36 23 75h78z" />
<glyph unicode="h" horiz-adv-x="504" d="M424 548v-548h-76v219h-271v-219h-77v548h77v-253h271v253h76v0z" />
<glyph unicode="i" horiz-adv-x="182" d="M0 548h76v-548h-76v548z" />
<glyph unicode="j" horiz-adv-x="500" d="M64 7q-22 7 -49 29q-25 23 -38 57l72 29q7 -17 19 -29q5 -5 11.5 -9t13.5 -6q15 -7 27 -8h17h1h2q41 0 65 20q25 22 37 54q14 36 17 69q3 34 3 48v7v2v278h77v-277v-10q0 -7 -0.5 -16.5t-1.5 -23.5t-3.5 -29.5t-6.5 -32.5q-9 -33 -25 -67t-48 -61q-11 -10 -24 -17 t-27 -12q-27 -10 -63 -10h-3h-12t-17 2q-21 3 -44 13z" />
<glyph unicode="k" horiz-adv-x="615" d="M403 0l-197 270l-130 -107v-163h-76v548h76v-285l353 285h120l-283 -231l232 -317h-95v0z" />
<glyph unicode="l" horiz-adv-x="402" d="M0 0v548h77v-472h17h203v-76h-203h-94z" />
<glyph unicode="m" horiz-adv-x="860" d="M743 548v-548h-76v403l-293 -368l-294 368v-403h-80v548h70l304 -386l303 386h66z" />
<glyph unicode="n" horiz-adv-x="702" d="M599 548v-548h-92l-431 446v-446h-76v548h85l437 -453v453h77v0z" />
<glyph unicode="o" horiz-adv-x="533" d="M0 342q0 43 17 83q16 39 45 69q32 30 69 46q37 17 83 17q45 0 82 -17q20 -8 37 -20t32 -26q30 -32 46 -69q18 -39 18 -83q0 -43 -18 -82q-8 -20 -20 -37t-26 -32q-15 -14 -32 -26t-37 -20q-39 -18 -82 -18q-44 0 -83 18q-37 16 -69 46q-14 15 -25.5 32t-19.5 37 q-17 40 -17 82zM31 0v77h372v-77h-372zM82 342q0 -55 39 -92q37 -39 93 -39q54 0 93 39q40 37 40 92q0 56 -40 93q-39 39 -93 39q-56 0 -93 -39q-39 -38 -39 -93z" />
<glyph unicode="p" horiz-adv-x="579" d="M0 0v548h294q1 0 6 -0.5l15 -1.5q9 -1 21 -3t26 -7q27 -8 61 -24q31 -15 59 -46q39 -45 39 -114q0 -68 -39 -111q-18 -20 -39 -34q-11 -6 -21 -11.5t-21 -9.5q-21 -9 -39 -13.5t-34 -6.5q-33 -3 -36 -3h-216v-163h-76zM293 242h3h11q4 0 8.5 0.5t9.5 1.5t9.5 2t9.5 3 q12 2 23 5.5t22 9.5q21 11 35 26q8 11 15 26q6 13 6 36q0 38 -19 60q-5 6 -9.5 11t-10.5 10q-11 9 -24 15q-15 8 -28.5 12t-27.5 6q-26 3 -33 3h-217v-227h217z" />
<glyph unicode="q" horiz-adv-x="648" d="M506 78q8 -7 14.5 -12.5t13.5 -10.5q6 -5 11 -9t10 -7l3 -3l2 -2q1 0 3 -2t4 -2l-45 -63q-9 9 -22 17q-5 5 -11 10t-13 10q-8 5 -15.5 11t-16.5 13q-70 -44 -152 -44q-54 0 -108 21q-52 19 -97 62q-45 45 -66 99t-21 110q0 54 21 108q21 52 62 96q23 22 47 38.5t52 27.5 q53 22 110 22q54 0 107 -21q52 -20 96 -64q45 -42 66 -97q23 -55 23 -110q0 -53 -20 -105t-58 -93zM292 61q51 0 90 20q-17 15 -33.5 31.5t-32.5 33.5q-17 18 -31.5 35.5t-28.5 35.5q-12 17 -21 34t-17 34q-14 32 -16 71q0 26 13 56q26 50 67 69q7 7 18 9q-3 0 -4 1 q-1 0 -1.5 0.5t-2.5 0.5q-88 0 -153 -65q-32 -32 -47 -71q-16 -38 -16 -80q0 -88 65 -153q32 -32 71 -47t80 -15zM446 127q31 33 46 70q15 39 15 79q0 62 -34 115l-1 1q0 1 -2 1l-27 14q-10 3 -19.5 6.5t-20.5 5.5q-22 6 -42 5q-27 0 -42 -9q-9 -5 -19 -15q-9 -11 -17 -24 q-3 -5 -3 -20q-3 -30 30 -80q17 -25 37 -49q11 -13 22 -25t23 -24l13.5 -13.5t13.5 -12.5t13.5 -12t13.5 -13z" />
<glyph unicode="r" horiz-adv-x="632" d="M465 0l-155 165h-234v-165h-76v548h328q1 0 6 0.5t14 -0.5t21 -3.5t26 -6.5q29 -9 61 -24q32 -16 60 -47q38 -46 38 -113q0 -66 -38 -112q-10 -10 -19.5 -18.5t-19.5 -14.5q-20 -13 -43 -22q-8 -3 -14.5 -5.5t-13.5 -4.5l168 -177h-56h-53zM342 244q3 1 7 1.5t9 1.5 q5 0 10 1t11 3q22 3 44 14q22 13 35 27q8 14 14 26q6 13 6 36q0 37 -17 60q-17 22 -46 36q-30 14 -55 17q-14 2 -22 3t-11 1h-251v-227h251h1h2h12z" />
<glyph unicode="s" horiz-adv-x="663" d="M285 -16h-7.5t-17.5 1q-12 0 -27 2t-33 5q-17 4 -35 8.5t-38 11.5q-37 11 -73 38q-23 16 -39 43q-15 27 -15 60h78q0 -19 17 -39q17 -16 58 -30q33 -13 71 -18q19 -2 32 -3.5t21 -2.5h10q83 0 124 16q44 17 64 35q20 16 25 30q3 7 4.5 11t2.5 6v4v1v2v6t-1 8 q-2 4 -6.5 9.5t-14.5 12.5q-17 13 -63 24q-23 6 -55.5 8.5t-74.5 2.5q-89 0 -147 14q-55 13 -89 37q-33 22 -46 50q-12 28 -10 47v17q2 32 17 58q14 24 37 42q22 16 48 27q13 5 25.5 9.5t25.5 9.5q50 14 90 17t42 3q100 0 158 -23q61 -23 91 -55q32 -29 41 -57q9 -29 9 -33 l-63 -5l-14 -3v1l-3 11q-8 18 -22 32q-22 19 -65 36q-44 18 -132 18h-3h-16q-5 -1 -10.5 -1.5t-12.5 -0.5l-14 -2t-15 -3q-32 -5 -62 -16q-31 -10 -50 -26q-24 -18 -24 -44v-5l-2 -4v-3q0 -3 3 -12q3 -8 21 -22q19 -13 63 -25q43 -12 129 -12q94 0 147 -13q27 -6 49.5 -15.5 t39.5 -20.5q32 -24 45 -52q12 -29 12 -47q0 -8 -1 -11v-7q-2 -5 -4 -13t-7 -21q-5 -12 -14.5 -25.5t-24.5 -27.5q-32 -30 -91 -53q-58 -23 -156 -23h-2z" />
<glyph unicode="t" horiz-adv-x="559" d="M516 548v-77h-204h-17v-471h-76v471h-17h-202v77h258h54h204v0z" />
<glyph unicode="u" horiz-adv-x="611" d="M517 541v-271v-17t-1 -24t-3.5 -29t-6.5 -32q-5 -17 -11 -34t-14 -34q-17 -35 -48 -61q-6 -5 -12 -8.5t-12 -7.5q-20 -14 -45.5 -21t-48.5 -9q-26 -3 -54 -2q-68 0 -98.5 8.5t-35.5 10.5q-21 7 -42 23q-20 14 -35 34q-7 10 -13 20t-11 20q-10 21 -15.5 41t-7.5 40 q-3 37 -3 58v295h76v-295q0 -7 0.5 -15t1.5 -19q2 -20 9 -44q5 -25 16 -42q10 -19 28 -31q3 -2 6.5 -4.5t7.5 -4.5q8 -5 24 -9q13 -3 35 -5.5t54 -2.5q29 -1 56 3q23 3 46.5 12t37.5 28q2 2 4 4.5t4 5.5q4 7 7.5 15t7.5 16q7 17 11 34.5t6 34.5q3 34 3 48v271h76z" />
<glyph unicode="v" horiz-adv-x="658" d="M589 548l-336 -580l-342 580h89l252 -429l249 429h88v0z" />
<glyph unicode="w" horiz-adv-x="930" d="M523 -35l-134 227l-132 -227l-346 583h90l256 -431l88 151l-168 280h90l122 -203l119 203h90l-165 -280l90 -151l251 431h90z" />
<glyph unicode="x" horiz-adv-x="645" d="M351 272l248 -272h-104l-195 216l-197 -216h-103l248 272l-253 276h103l202 -219l200 219h104l-253 -276v0z" />
<glyph unicode="y" horiz-adv-x="558" d="M253 272l-14 -14v-258h-76v256l-268 292h105l200 -219l200 219h106z" />
<glyph unicode="z" horiz-adv-x="691" d="M467 107q73 -25 135 -86l-56 -55q-50 49 -105 68q-28 9 -55.5 14t-55.5 5q-23 0 -39 -2t-36 -7q-10 -2 -16 -3.5t-11 -2.5t-10 -2.5t-13 -4.5q-16 -5 -42 -15t-65 -16h-98l44 51l336 416h-367v81h545l-348 -433q14 3 31 6.5t31 5.5q28 3 58 3q33 0 67 -5.5t70 -17.5z" />
<glyph unicode="&#xa2;" horiz-adv-x="554" d="M448 135q-28 -40 -70 -67t-93 -35v-134h-78v134q-44 7 -82 28.5t-66 54t-43.5 73t-15.5 86.5t15.5 87t43.5 73t66 53.5t82 28.5v132h78v-132q45 -7 82.5 -28.5t65.5 -53.5l-60 -52q-23 27 -56 43t-71 16q-35 0 -65.5 -13.5t-53 -36t-35.5 -53t-13 -64.5t13 -64.5 t35.5 -53t53 -35.5t65.5 -13q43 0 78.5 19.5t58.5 51.5l65 -45v0z" />
<glyph unicode="&#xa3;" horiz-adv-x="679" d="M577 497q4 -6 8 -18q2 -8 3 -17.5t1 -20.5q0 -8 -1 -16.5t-3 -16.5q-5 -20 -18 -37q-26 -38 -82 -54q-44 -15 -86 -15q-20 0 -39.5 2.5t-37.5 8.5q-39 13 -69 31q-16 10 -30.5 21t-27.5 24q-14 12 -26.5 25t-24.5 27q-4 5 -7.5 10t-7.5 10q-3 5 -6.5 10t-6.5 10 q-2 0 -5 -3q-18 -19 -22 -36q-4 -15 -4 -20v-2v-1v-2v-10q0 -7 1 -16.5t3 -21.5q4 -24 16 -39q9 -11 16.5 -24t14.5 -27t12 -29.5t10 -32.5q32 14 82 28q25 6 51 9.5t55 4.5q23 0 46 -3t48 -8q49 -10 100 -38l-39 -75q-40 22 -80 30q-20 4 -38.5 6t-36.5 2q-57 1 -108 -17 q-50 -17 -78 -33q0 -8 -4 -17q-2 -7 -3.5 -13.5t-3.5 -13.5t-4.5 -13.5t-5.5 -13.5q36 10 78 18q40 7 89 9q58 0 123 -18q62 -16 123 -65l-51 -66q-47 35 -97 49q-51 14 -98 14q-48 0 -88 -10q-42 -9 -74 -21q-16 -6 -29 -11.5t-24 -11.5q-22 -11 -25 -12h-1l-56 62l1 2 q2 1 2 1.5t1 1.5l1.5 3t2.5 3t4 5t4 7t4.5 8.5t6.5 9.5q5 10 10.5 20.5t10.5 23.5t9.5 25.5t6.5 25.5q3 11 4 20.5t1 18.5q0 34 -12 63q-10 28 -28 52q-27 34 -33 72q-2 17 -3.5 31t-1.5 25v18q1 5 3 14t5 24q6 30 31 62q4 5 7.5 8.5t7.5 8.5q4 4 8.5 7.5t9.5 8.5 q-30 54 -39 96q-2 7 -3 13t-3 11q-1 5 -1.5 10.5t-1.5 11.5h87q-4 -7 10 -44q3 -14 9 -27q3 -7 6.5 -14.5t7.5 -16.5q15 5 30.5 9.5t32.5 7.5q17 4 36 6.5t41 2.5h17q77 0 130 -18q52 -18 87 -42q31 -22 45 -44q13 -22 14 -23zM497 420q7 8 7 21q0 7 -2 13q-1 4 -1 9h-2 q0 3 -3 6q-2 3 -4.5 6t-6.5 6q-3 4 -7.5 7t-9.5 7q-21 15 -61 29q-38 13 -106 13h-16q-57 0 -96 -13q10 -15 21 -28.5t23 -26.5q11 -13 24 -23.5t27 -20.5q54 -38 115 -39q25 0 61 11q19 6 26 12q8 6 11 11z" />
<glyph unicode="&#x2018;" horiz-adv-x="213" d="M91 518q18 -10 24 -29q7 -20 -3 -39.5t-30 -26.5q-17 -5 -36 -1t-29 17l7 -8l-7 8q-2 2 -5 6.5t-4 6.5q-4 8 -6.5 20.5t-0.5 27.5t11 32t27 33q10 9 21 16q10 6 23.5 11t30.5 5l17 -50q-20 -8 -31 -19q-2 -2 -4.5 -5t-4.5 -5z" />
<glyph unicode="&#x2019;" horiz-adv-x="237" d="M65 504q-18 10 -24 29q-7 21 3 40t30 26q17 5 36 1t29 -17l-7 8l7 -8q2 -2 5 -6.5t4 -6.5q4 -8 6.5 -20.5t0 -27.5t-11 -32t-26.5 -33q-11 -9 -22 -16q-11 -6 -24 -11t-29 -5l-17 51q19 6 31 18q2 2 4.5 5t4.5 5z" />
<glyph unicode="&#x201c;" horiz-adv-x="340" d="M91 518q18 -10 24 -29q7 -20 -2.5 -39.5t-29.5 -26.5q-17 -5 -36.5 -1t-29.5 17l8 -7l-8 7q-2 2 -4.5 6.5t-4.5 6.5q-4 8 -6.5 20.5t0 27.5t11 32t26.5 33q9 9 20 19q9 8 20 18l22 20l13 -39q5 -17 -1 -33t-12 -22q-6 -4 -10 -10zM227 518q16 -9 24 -29q7 -20 -3 -39.5 t-30 -26.5q-17 -5 -36 -1t-29 17l7 -7l-7 7q-2 2 -5 6.5t-4 6.5q-4 8 -6.5 20.5t-0.5 27.5t11 32t27 33q9 9 20 19q9 8 20 18l22 20l12 -39q5 -17 -1 -33t-12 -22q-6 -5 -9 -10z" />
<glyph unicode="&#x201d;" horiz-adv-x="322" d="M161 512q-16 9 -24 29q-7 20 3 39.5t30 26.5q17 5 36.5 1t28.5 -17l-7 7l7 -7q2 -2 5 -6.5t5 -6.5q4 -8 6 -20.5t0 -27.5t-10.5 -32t-26.5 -33q-9 -10 -20 -20q-9 -8 -20.5 -18t-22.5 -19l-12 39q-5 17 1 33t12 22q6 5 9 10zM26 512q-18 10 -24 29q-7 20 3 39.5t30 26.5 q17 5 36 1t29 -17l-8 7l8 -7q2 -2 5 -6.5t4 -6.5q4 -8 6.5 -20.5t0 -27.5t-11 -32t-26.5 -33q-9 -10 -20 -20q-9 -8 -20 -18t-22 -19l-13 39q-5 17 1.5 33t12.5 22t9 10z" />
<glyph unicode="&#x20ac;" horiz-adv-x="636" d="M517 108q-16 -31 -37 -56.5t-47 -44.5q-26 -20 -57 -30.5t-64 -10.5q-55 0 -101 27t-78 72q-38 52 -55 119h-78v86h65v17v21h-65v85h79q8 33 22 62t32 54q32 44 78 71.5t101 27.5q60 0 109.5 -33t81.5 -84l-72 -46q-25 38 -55.5 57.5t-63.5 19.5q-30 0 -58.5 -16 t-51.5 -48q-10 -14 -18.5 -30t-14.5 -35h236v-85h-254v-21v-17h254v-86h-238q13 -39 35 -68q23 -32 51.5 -48t58.5 -16q37 0 70 24q35 24 59 71z" />
<glyph unicode="&#x25fc;" horiz-adv-x="550" d="M0 550h550v-550h-550v550z" />
</font>
</defs>
</svg>
